<?xml version="1.0" encoding="UTF-8" standalone="no"?>
<!-- Created with Inkscape (http://www.inkscape.org/) -->

<svg
   xmlns:dc="http://purl.org/dc/elements/1.1/"
   xmlns:cc="http://creativecommons.org/ns#"
   xmlns:rdf="http://www.w3.org/1999/02/22-rdf-syntax-ns#"
   xmlns:svg="http://www.w3.org/2000/svg"
   xmlns="http://www.w3.org/2000/svg"
   xmlns:xlink="http://www.w3.org/1999/xlink"
   xmlns:sodipodi="http://sodipodi.sourceforge.net/DTD/sodipodi-0.dtd"
   xmlns:inkscape="http://www.inkscape.org/namespaces/inkscape"
   width="550"
   height="550"
   id="svg2"
   version="1.1"
   inkscape:version="0.47 r22583"
   sodipodi:docname="cruz-celta.svg">
  <defs
     id="defs4">
    <linearGradient
       inkscape:collect="always"
       id="linearGradient3972">
      <stop
         style="stop-color:#1a1a1a;stop-opacity:1;"
         offset="0"
         id="stop3974" />
      <stop
         style="stop-color:#ffffff;stop-opacity:1"
         offset="1"
         id="stop3976" />
    </linearGradient>
    <inkscape:path-effect
       effect="spiro"
       id="path-effect3969"
       is_visible="true" />
    <linearGradient
       id="linearGradient3947">
      <stop
         style="stop-color:#333333;stop-opacity:1"
         offset="0"
         id="stop3949" />
      <stop
         id="stop3965"
         offset="0.25"
         style="stop-color:#ffffff;stop-opacity:1" />
      <stop
         id="stop3963"
         offset="0.49740276"
         style="stop-color:#1a1a1a;stop-opacity:1" />
      <stop
         style="stop-color:#ffffff;stop-opacity:1"
         offset="1"
         id="stop3951" />
    </linearGradient>
    <inkscape:path-effect
       effect="spiro"
       id="path-effect3944"
       is_visible="true" />
    <linearGradient
       inkscape:collect="always"
       id="linearGradient3934">
      <stop
         style="stop-color:#333333;stop-opacity:1"
         offset="0"
         id="stop3936" />
      <stop
         style="stop-color:#ffffff;stop-opacity:1"
         offset="1"
         id="stop3938" />
    </linearGradient>
    <inkscape:path-effect
       effect="spiro"
       id="path-effect3931"
       is_visible="true" />
    <linearGradient
       inkscape:collect="always"
       id="linearGradient3921">
      <stop
         style="stop-color:#333333;stop-opacity:1;"
         offset="0"
         id="stop3923" />
      <stop
         style="stop-color:#ffffff;stop-opacity:1"
         offset="1"
         id="stop3925" />
    </linearGradient>
    <inkscape:path-effect
       effect="spiro"
       id="path-effect3918"
       is_visible="true" />
    <linearGradient
       inkscape:collect="always"
       id="linearGradient3908">
      <stop
         style="stop-color:#333333;stop-opacity:1;"
         offset="0"
         id="stop3910" />
      <stop
         style="stop-color:#333333;stop-opacity:0;"
         offset="1"
         id="stop3912" />
    </linearGradient>
    <inkscape:path-effect
       effect="spiro"
       id="path-effect3905"
       is_visible="true" />
    <linearGradient
       inkscape:collect="always"
       id="linearGradient3895">
      <stop
         style="stop-color:#333333;stop-opacity:1;"
         offset="0"
         id="stop3897" />
      <stop
         style="stop-color:#333333;stop-opacity:0;"
         offset="1"
         id="stop3899" />
    </linearGradient>
    <inkscape:path-effect
       effect="spiro"
       id="path-effect3892"
       is_visible="true" />
    <linearGradient
       inkscape:collect="always"
       id="linearGradient3882">
      <stop
         style="stop-color:#333333;stop-opacity:1;"
         offset="0"
         id="stop3884" />
      <stop
         style="stop-color:#333333;stop-opacity:0;"
         offset="1"
         id="stop3886" />
    </linearGradient>
    <inkscape:path-effect
       effect="spiro"
       id="path-effect3879"
       is_visible="true" />
    <linearGradient
       inkscape:collect="always"
       id="linearGradient3869">
      <stop
         style="stop-color:#333333;stop-opacity:1;"
         offset="0"
         id="stop3871" />
      <stop
         style="stop-color:#333333;stop-opacity:0;"
         offset="1"
         id="stop3873" />
    </linearGradient>
    <inkscape:path-effect
       effect="spiro"
       id="path-effect3866"
       is_visible="true" />
    <linearGradient
       inkscape:collect="always"
       id="linearGradient3856">
      <stop
         style="stop-color:#333333;stop-opacity:1;"
         offset="0"
         id="stop3858" />
      <stop
         style="stop-color:#333333;stop-opacity:0;"
         offset="1"
         id="stop3860" />
    </linearGradient>
    <inkscape:path-effect
       effect="spiro"
       id="path-effect3853"
       is_visible="true" />
    <linearGradient
       inkscape:collect="always"
       id="linearGradient3843">
      <stop
         style="stop-color:#ffffff;stop-opacity:1"
         offset="0"
         id="stop3845" />
      <stop
         style="stop-color:#333333;stop-opacity:1"
         offset="1"
         id="stop3847" />
    </linearGradient>
    <inkscape:path-effect
       effect="spiro"
       id="path-effect3840"
       is_visible="true" />
    <linearGradient
       inkscape:collect="always"
       id="linearGradient3830">
      <stop
         style="stop-color:#ffffff;stop-opacity:1"
         offset="0"
         id="stop3832" />
      <stop
         style="stop-color:#1a1a1a;stop-opacity:1"
         offset="1"
         id="stop3834" />
    </linearGradient>
    <inkscape:path-effect
       effect="spiro"
       id="path-effect3827"
       is_visible="true" />
    <linearGradient
       inkscape:collect="always"
       id="linearGradient3817">
      <stop
         style="stop-color:#ffffff;stop-opacity:1"
         offset="0"
         id="stop3819" />
      <stop
         style="stop-color:#333333;stop-opacity:1"
         offset="1"
         id="stop3821" />
    </linearGradient>
    <inkscape:path-effect
       effect="spiro"
       id="path-effect3814"
       is_visible="true" />
    <linearGradient
       inkscape:collect="always"
       id="linearGradient3804">
      <stop
         style="stop-color:#333333;stop-opacity:1"
         offset="0"
         id="stop3806" />
      <stop
         style="stop-color:#666666;stop-opacity:0;"
         offset="1"
         id="stop3808" />
    </linearGradient>
    <inkscape:path-effect
       effect="spiro"
       id="path-effect3801"
       is_visible="true" />
    <linearGradient
       id="linearGradient3673">
      <stop
         style="stop-color:#666666;stop-opacity:1;"
         offset="0"
         id="stop3675" />
      <stop
         style="stop-color:#fffcfc;stop-opacity:0.99404764;"
         offset="1"
         id="stop3677" />
    </linearGradient>
    <inkscape:perspective
       sodipodi:type="inkscape:persp3d"
       inkscape:vp_x="0 : 526.18109 : 1"
       inkscape:vp_y="0 : 1000 : 0"
       inkscape:vp_z="744.09448 : 526.18109 : 1"
       inkscape:persp3d-origin="372.04724 : 350.78739 : 1"
       id="perspective10" />
    <filter
       inkscape:collect="always"
       id="filter3681"
       color-interpolation-filters="sRGB">
      <feGaussianBlur
         inkscape:collect="always"
         stdDeviation="2.18037"
         id="feGaussianBlur3683" />
    </filter>
    <filter
       inkscape:collect="always"
       id="filter3727"
       color-interpolation-filters="sRGB">
      <feGaussianBlur
         inkscape:collect="always"
         stdDeviation="1.0220153"
         id="feGaussianBlur3729" />
    </filter>
    <linearGradient
       inkscape:collect="always"
       xlink:href="#linearGradient3804"
       id="linearGradient3810"
       x1="-13.554485"
       y1="563.45142"
       x2="467.82156"
       y2="563.45142"
       gradientUnits="userSpaceOnUse" />
    <linearGradient
       inkscape:collect="always"
       xlink:href="#linearGradient3817"
       id="linearGradient3823"
       x1="45.461941"
       y1="355.54819"
       x2="77.776672"
       y2="335.09259"
       gradientUnits="userSpaceOnUse" />
    <linearGradient
       inkscape:collect="always"
       xlink:href="#linearGradient3830"
       id="linearGradient3836"
       x1="129.85715"
       y1="324.73215"
       x2="199.78571"
       y2="312.76785"
       gradientUnits="userSpaceOnUse" />
    <linearGradient
       inkscape:collect="always"
       xlink:href="#linearGradient3843"
       id="linearGradient3849"
       x1="155.75"
       y1="492.21494"
       x2="374.07144"
       y2="492.21494"
       gradientUnits="userSpaceOnUse" />
    <linearGradient
       inkscape:collect="always"
       xlink:href="#linearGradient3856"
       id="linearGradient3862"
       x1="342.32053"
       y1="441.78998"
       x2="357.46265"
       y2="480.302"
       gradientUnits="userSpaceOnUse" />
    <linearGradient
       inkscape:collect="always"
       xlink:href="#linearGradient3869"
       id="linearGradient3875"
       x1="443.60715"
       y1="340.08929"
       x2="341.03571"
       y2="438.83929"
       gradientUnits="userSpaceOnUse" />
    <linearGradient
       inkscape:collect="always"
       xlink:href="#linearGradient3882"
       id="linearGradient3888"
       x1="501.03571"
       y1="365.67856"
       x2="455.32141"
       y2="347.23215"
       gradientUnits="userSpaceOnUse" />
    <linearGradient
       inkscape:collect="always"
       xlink:href="#linearGradient3895"
       id="linearGradient3901"
       x1="320.52887"
       y1="322.5"
       x2="320.52887"
       y2="378.03571"
       gradientUnits="userSpaceOnUse" />
    <linearGradient
       inkscape:collect="always"
       xlink:href="#linearGradient3908"
       id="linearGradient3914"
       x1="386.21429"
       y1="316.79681"
       x2="323.71429"
       y2="316.79681"
       gradientUnits="userSpaceOnUse" />
    <linearGradient
       inkscape:collect="always"
       xlink:href="#linearGradient3921"
       id="linearGradient3927"
       x1="495.59949"
       y1="167.91235"
       x2="495.59949"
       y2="351.25504"
       gradientUnits="userSpaceOnUse" />
    <linearGradient
       inkscape:collect="always"
       xlink:href="#linearGradient3934"
       id="linearGradient3940"
       x1="191.93407"
       y1="107.56081"
       x2="155.31096"
       y2="200.4847"
       gradientUnits="userSpaceOnUse" />
    <linearGradient
       inkscape:collect="always"
       xlink:href="#linearGradient3947"
       id="linearGradient3953"
       x1="350.64221"
       y1="40.380592"
       x2="324.31607"
       y2="198.96947"
       gradientUnits="userSpaceOnUse" />
    <linearGradient
       inkscape:collect="always"
       xlink:href="#linearGradient3972"
       id="linearGradient3978"
       x1="374.77167"
       y1="101.4999"
       x2="446.98743"
       y2="169.42758"
       gradientUnits="userSpaceOnUse" />
    <linearGradient
       inkscape:collect="always"
       xlink:href="#linearGradient3804"
       id="linearGradient4006"
       gradientUnits="userSpaceOnUse"
       x1="-13.554485"
       y1="563.45142"
       x2="467.82156"
       y2="563.45142" />
    <linearGradient
       inkscape:collect="always"
       xlink:href="#linearGradient3972"
       id="linearGradient4008"
       gradientUnits="userSpaceOnUse"
       x1="374.77167"
       y1="101.4999"
       x2="446.98743"
       y2="169.42758" />
    <linearGradient
       inkscape:collect="always"
       xlink:href="#linearGradient3947"
       id="linearGradient4010"
       gradientUnits="userSpaceOnUse"
       x1="350.64221"
       y1="40.380592"
       x2="324.31607"
       y2="198.96947" />
    <linearGradient
       inkscape:collect="always"
       xlink:href="#linearGradient3934"
       id="linearGradient4012"
       gradientUnits="userSpaceOnUse"
       x1="191.93407"
       y1="107.56081"
       x2="155.31096"
       y2="200.4847" />
    <linearGradient
       inkscape:collect="always"
       xlink:href="#linearGradient3908"
       id="linearGradient4014"
       gradientUnits="userSpaceOnUse"
       x1="386.21429"
       y1="316.79681"
       x2="323.71429"
       y2="316.79681" />
    <linearGradient
       inkscape:collect="always"
       xlink:href="#linearGradient3895"
       id="linearGradient4016"
       gradientUnits="userSpaceOnUse"
       x1="320.52887"
       y1="322.5"
       x2="320.52887"
       y2="378.03571" />
    <linearGradient
       inkscape:collect="always"
       xlink:href="#linearGradient3869"
       id="linearGradient4018"
       gradientUnits="userSpaceOnUse"
       x1="443.60715"
       y1="340.08929"
       x2="341.03571"
       y2="438.83929" />
    <linearGradient
       inkscape:collect="always"
       xlink:href="#linearGradient3817"
       id="linearGradient4020"
       gradientUnits="userSpaceOnUse"
       x1="45.461941"
       y1="355.54819"
       x2="77.776672"
       y2="335.09259" />
    <linearGradient
       inkscape:collect="always"
       xlink:href="#linearGradient3830"
       id="linearGradient4022"
       gradientUnits="userSpaceOnUse"
       x1="129.85715"
       y1="324.73215"
       x2="199.78571"
       y2="312.76785" />
    <linearGradient
       inkscape:collect="always"
       xlink:href="#linearGradient3843"
       id="linearGradient4024"
       gradientUnits="userSpaceOnUse"
       x1="155.75"
       y1="492.21494"
       x2="374.07144"
       y2="492.21494" />
    <linearGradient
       inkscape:collect="always"
       xlink:href="#linearGradient3856"
       id="linearGradient4026"
       gradientUnits="userSpaceOnUse"
       x1="342.32053"
       y1="441.78998"
       x2="357.46265"
       y2="480.302" />
    <linearGradient
       inkscape:collect="always"
       xlink:href="#linearGradient3882"
       id="linearGradient4028"
       gradientUnits="userSpaceOnUse"
       x1="501.03571"
       y1="365.67856"
       x2="455.32141"
       y2="347.23215" />
    <linearGradient
       inkscape:collect="always"
       xlink:href="#linearGradient3921"
       id="linearGradient4030"
       gradientUnits="userSpaceOnUse"
       x1="495.59949"
       y1="167.91235"
       x2="495.59949"
       y2="351.25504" />
  </defs>
  <sodipodi:namedview
     id="base"
     pagecolor="#ffffff"
     bordercolor="#666666"
     borderopacity="1.0"
     inkscape:pageopacity="0.0"
     inkscape:pageshadow="2"
     inkscape:zoom="0.98994949"
     inkscape:cx="-64.931744"
     inkscape:cy="212.09927"
     inkscape:document-units="px"
     inkscape:current-layer="layer1"
     showgrid="false"
     inkscape:window-width="1920"
     inkscape:window-height="1005"
     inkscape:window-x="0"
     inkscape:window-y="24"
     inkscape:window-maximized="1">
    <inkscape:grid
       type="xygrid"
       id="grid2821"
       empspacing="5"
       visible="true"
       enabled="true"
       snapvisiblegridlinesonly="true" />
  </sodipodi:namedview>
  <metadata
     id="metadata7">
    <rdf:RDF>
      <cc:Work
         rdf:about="">
        <dc:format>image/svg+xml</dc:format>
        <dc:type
           rdf:resource="http://purl.org/dc/dcmitype/StillImage" />
        <dc:title></dc:title>
      </cc:Work>
    </rdf:RDF>
  </metadata>
  <g
     inkscape:label="Capa 1"
     inkscape:groupmode="layer"
     id="layer1"
     transform="translate(52.840199,-240.93929)">
    <g
       id="g3980"
       transform="translate(14.142136,-35.355339)">
      <path
         sodipodi:nodetypes="ccccccccccccccccccccccccccccccccccc"
         style="fill:url(#linearGradient4006);fill-opacity:1;fill-rule:evenodd;stroke:#000000;stroke-width:1px;stroke-linecap:butt;stroke-linejoin:miter;stroke-opacity:1"
         d="m 225.22321,323.60715 c -29.31498,0.0754 -59.91798,5.48899 -92.1875,17.875 9.0884,13.11617 16.38037,26.39519 22.15625,39.8125 C 106.03605,400.71243 66.665428,439.53887 46.504464,488.3259 32.717142,482.97405 19.063351,476.54133 5.5357143,468.98215 c -29.0398913,72.55227 -20.1374473,131.97065 0,187.5 13.8231787,-7.45121 27.6455717,-13.34929 41.4687497,-18 19.618073,46.55468 56.793456,83.90596 103.218746,103.75 -5.32718,13.94254 -11.1856,27.85244 -17.1875,41.75 56.10999,19.17004 114.46809,31.59574 187.5,0 -5.33156,-14.00545 -11.11936,-28.0258 -16.5625,-42.03125 45.68161,-19.71767 82.32621,-56.41001 102,-102.125 14.11543,5.20652 28.08336,10.93866 42.0625,16.65625 25.37301,-60.62052 26.05371,-123.0701 0,-187.5 -13.57175,6.90651 -27.33025,13.10165 -41.3125,18.46875 -19.6631,-46.93606 -57.16113,-84.54643 -104,-104.375 5.24661,-13.98741 11.28075,-27.83313 17.8125,-41.59375 -30.51695,-11.19236 -62.08886,-17.96049 -95.3125,-17.875 z M 168.75446,424.3884 c 5.76972,27.77574 6.41245,56.02588 4.15625,84.53125 -28.1169,1.12127 -55.83428,-1.20808 -83.093746,-7.375 15.522536,-34.69704 43.835066,-62.4066 78.937496,-77.15625 z m 121.19258,-4.02967 c 32.77628,15.09745 58.67483,47.72147 73.55742,80.62342 -25.56653,6.12737 -51.96675,9.06816 -79.46875,7.9375 -3.25193,-28.39518 -0.30252,-61.83617 5.91133,-88.56092 z m 16.11992,198.49842 c 19.53387,0.0236 38.32331,2.84793 56.65625,7.375 -15.04816,32.1954 -41.18521,58.17819 -73.5,73 -7.46264,-26.39276 -10.92298,-52.79474 -5.1875,-79.1875 7.45507,-0.81382 14.79553,-1.19623 22.03125,-1.1875 z m -133.15625,1.1875 c 2.27838,26.74388 -1.43066,53.09596 -8.46875,79.21875 -31.98304,-14.64432 -57.95288,-40.19519 -73.093746,-71.90625 27.186306,-4.79837 54.376196,-6.35144 81.562496,-7.3125 z"
         id="path3797" />
      <path
         sodipodi:nodetypes="cccc"
         id="path3967"
         d="m 375.27167,101.9999 c 22.57222,24.95615 47.03964,49.4385 54.04316,78.28682 l 17.17259,-8.58629 C 430.32498,140.35374 400.02041,115.04805 375.27167,101.9999"
         style="fill:url(#linearGradient4008);fill-opacity:1;stroke:#000000;stroke-width:1px;stroke-linecap:butt;stroke-linejoin:miter;stroke-opacity:1"
         transform="translate(-52.840199,290.93929)" />
      <path
         sodipodi:nodetypes="ccccc"
         id="path3942"
         d="m 344.46202,29.77399 29.29442,21.213203 C 339.7965,120.62765 336.77713,160.56519 335.87572,198.46947 l -28.28427,-1.01016 c -1.81479,-50.85762 1.44956,-103.529208 36.87057,-167.68532"
         style="fill:url(#linearGradient4010);fill-opacity:1;stroke:#000000;stroke-width:1px;stroke-linecap:butt;stroke-linejoin:miter;stroke-opacity:1"
         transform="translate(-52.840199,290.93929)" />
      <path
         sodipodi:nodetypes="ccccc"
         id="path3929"
         d="m 193.44422,108.06081 c -39.60481,18.77317 -70.81816,45.21817 -84.85282,82.83251 l 39.90102,9.09137 c 12.26761,-24.39415 29.85389,-41.07513 53.53809,-56.06346 l -7.57614,-35.86042"
         style="fill:url(#linearGradient4012);fill-opacity:1;stroke:#000000;stroke-width:1px;stroke-linecap:butt;stroke-linejoin:miter;stroke-opacity:1"
         transform="translate(-52.840199,290.93929)" />
      <path
         sodipodi:nodetypes="ccccc"
         id="path3903"
         d="m 337.5,328.92857 -29.46429,-20 c 25.7874,-2.96736 48.68412,-1.52137 77.67858,6.07143 l -6.42858,13.57143 c -19.55635,-1.0385 -30.80324,-1.5162 -41.78571,0.35714"
         style="fill:url(#linearGradient4014);fill-opacity:1;stroke:#000000;stroke-width:1px;stroke-linecap:butt;stroke-linejoin:miter;stroke-opacity:1"
         transform="translate(-52.840199,290.93929)" />
      <path
         sodipodi:nodetypes="ccccc"
         id="path3890"
         d="m 307.85714,308.57143 c -7.9151,27.4508 -2.76555,53.36457 5.35715,78.92857 l 22.14285,-13.57143 c -1.95391,-15 -1.96123,-30 1.78572,-45 l -29.28572,-20.35714"
         style="fill:url(#linearGradient4016);fill-opacity:1;stroke:#000000;stroke-width:1px;stroke-linecap:butt;stroke-linejoin:miter;stroke-opacity:1"
         transform="translate(-52.840199,290.93929)" />
      <path
         sodipodi:nodetypes="ccccc"
         id="path3864"
         d="M 357.32143,450.71429 328.03571,430.17857 C 382.87618,406.02694 410.7811,369.47077 429.64286,328.75 L 458.75,348.57143 c -22.58674,53.01947 -58.90899,82.81939 -101.42857,102.14286"
         style="fill:url(#linearGradient4018);fill-opacity:1;stroke:#000000;stroke-width:1px;stroke-linecap:butt;stroke-linejoin:miter;stroke-opacity:1"
         transform="translate(-52.840199,290.93929)" />
      <path
         sodipodi:nodetypes="ccccc"
         id="path3812"
         d="m 29.503634,345.26809 28.832676,20.63416 c 8.660381,-5.6703 17.953939,-9.44107 27.274118,-13.13198 L 72.225907,321.45554 c -14.589937,7.97973 -32.37361,15.22856 -42.722273,23.81255"
         style="fill:url(#linearGradient4020);fill-opacity:1;stroke:#000000;stroke-width:1px;stroke-linecap:butt;stroke-linejoin:miter;stroke-opacity:1"
         transform="translate(-52.840199,290.93929)" />
      <path
         sodipodi:nodetypes="cccccccc"
         id="path3825"
         d="m 115.35714,315.89286 29.28572,20.53571 c 17.46832,-3.69816 35.68048,-4.42095 53.57143,-6.42857 l 1.07142,-26.25 c -28.01105,3.98225 -58.38395,1.70569 -82.85714,12.32143 10.65318,32.24477 38.05761,53.08952 66.96429,72.67857 -14.44966,-16.88161 -27.76494,-34.67789 -38.92857,-52.5 l -29.10715,-20.17857"
         style="fill:url(#linearGradient4022);fill-opacity:1;stroke:#000000;stroke-width:1px;stroke-linecap:butt;stroke-linejoin:miter;stroke-opacity:1"
         transform="translate(-52.840199,290.93929)" />
      <path
         id="path3595"
         d="m 195.9375,302.89286 c -29.31498,0.0754 -59.91798,5.48899 -92.1875,17.875 9.0884,13.11617 16.38037,26.39519 22.15625,39.8125 C 76.750333,379.99814 37.379714,418.82458 17.21875,467.61161 3.4314277,462.25976 -10.222363,455.82704 -23.75,448.26786 c -29.039891,72.55227 -20.137447,131.97065 0,187.5 13.823179,-7.45121 27.6455715,-13.34929 41.46875,-18 19.618073,46.55468 56.793453,83.90596 103.21875,103.75 -5.32718,13.94254 -11.1856,27.85244 -17.1875,41.75 56.10999,19.17004 114.46809,31.59574 187.5,0 -5.33156,-14.00545 -11.11936,-28.0258 -16.5625,-42.03125 45.68161,-19.71767 82.32621,-56.41001 102,-102.125 14.11543,5.20652 28.08336,10.93866 42.0625,16.65625 25.37301,-60.62052 26.05371,-123.0701 0,-187.5 -13.57175,6.90651 -27.33025,13.10165 -41.3125,18.46875 -19.6631,-46.93606 -57.16113,-84.54643 -104,-104.375 5.24661,-13.98741 11.28075,-27.83313 17.8125,-41.59375 -30.51695,-11.19236 -62.08886,-17.96049 -95.3125,-17.875 z m -56.46875,100.78125 c 5.76972,27.77574 6.41245,56.02588 4.15625,84.53125 -28.1169,1.12127 -55.834287,-1.20808 -83.09375,-7.375 15.522533,-34.69704 43.83507,-62.4066 78.9375,-77.15625 z m 120.6875,2.03125 c 32.77628,15.09745 59.17991,41.66055 74.0625,74.5625 -25.56653,6.12737 -51.96675,9.06816 -79.46875,7.9375 -3.25193,-28.39518 -0.8076,-55.77525 5.40625,-82.5 z m 16.625,192.4375 c 19.53387,0.0236 38.32331,2.84793 56.65625,7.375 -15.04816,32.1954 -41.18521,58.17819 -73.5,73 -7.46264,-26.39276 -10.92298,-52.79474 -5.1875,-79.1875 7.45507,-0.81382 14.79553,-1.19623 22.03125,-1.1875 z m -133.15625,1.1875 c 2.27838,26.74388 -1.43066,53.09596 -8.46875,79.21875 -31.98304,-14.64432 -57.952887,-40.19519 -73.09375,-71.90625 27.186301,-4.79837 54.3762,-6.35144 81.5625,-7.3125 z"
         style="fill:#000000;fill-rule:evenodd;stroke:#000000;stroke-width:1px;stroke-linecap:butt;stroke-linejoin:miter;stroke-opacity:1" />
      <path
         id="path3602"
         d="m 197.4375,325.01786 c -19.37925,-0.0777 -39.36681,2.41341 -60.3125,8.09375 5.37478,10.08319 9.88636,20.25501 13.65625,30.5 -63.26187,16.4747 -113.223378,65.65368 -130.8125,128.46875 -10.4631255,-3.64971 -20.857291,-7.84101 -31.15625,-12.625 -14.024565,46.96597 -10.59802,86.58832 0.6875,125.4375 10.352511,-4.40344 20.674247,-8.07797 30.96875,-11.15625 17.506478,60.24907 64.877363,107.66739 125.0625,125.28125 -3.74036,10.29454 -7.764,20.47271 -11.9375,30.53125 40.59498,12.00233 80.39998,17.02182 128.75,1 -4.19421,-10.35026 -8.51392,-20.88703 -12.59375,-31.625 59.69292,-17.57443 106.711,-64.48027 124.4375,-124.125 10.76334,3.77084 21.32231,7.84206 31.6875,12 13.37856,-41.92824 13.77349,-83.90881 0.25,-128.0625 -10.28352,4.5753 -20.73359,8.76926 -31.34375,12.5 C 357.43687,430.42152 309.69905,382.5389 249,364.95536 c 3.59176,-10.37567 7.60296,-20.60085 11.90625,-30.6875 -19.51517,-5.45198 -39.25619,-8.74958 -59.59375,-9.1875 -1.28658,-0.0277 -2.58305,-0.0573 -3.875,-0.0625 z m -39.53125,61.28125 c 9.06845,34.51606 10.48682,69.4734 7.78125,103.65625 a 22.135468,22.135468 0 0 1 -21.1875,20.375 c -34.3575,1.37014 -68.433574,-2.19195 -101.84375,-11.21875 15.332676,-55.26233 59.53125,-98.63754 115.25,-112.8125 z m 84.03125,1.3125 c 53.18973,15.32837 95.12421,57.47025 110.1875,110.78125 -31.25865,8.78489 -63.94675,13.34906 -98.28125,11.9375 A 22.135468,22.135468 0 0 1 232.75,490.73661 c -4.13044,-36.06611 0.12367,-70.34527 9.1875,-103.125 z M 278.75,576.01786 c 25.66374,0.24008 49.80301,4.82359 72.84375,11.5 -15.50204,52.49108 -57.11795,93.8934 -109.75,109.03125 -10.41194,-32.18992 -16.50042,-66.09765 -8.71875,-101.90625 a 22.135468,22.135468 0 0 1 19.21875,-17.3125 c 8.97976,-0.98026 17.78601,-1.39314 26.40625,-1.3125 z m -135.90625,1.1875 a 22.135468,22.135468 0 0 1 22.84375,20.25 c 2.93496,34.4509 -2.8798,67.36369 -12.59375,99.0625 -52.50898,-15.12711 -94.065672,-56.37989 -109.625,-108.71875 33.916841,-7.48497 67.25449,-9.45826 99.375,-10.59375 z"
         style="fill:#808080;fill-opacity:1;fill-rule:evenodd;stroke:#000000;stroke-width:1px;stroke-linecap:butt;stroke-linejoin:miter;stroke-opacity:1;filter:url(#filter3681)" />
      <path
         sodipodi:nodetypes="cccsccsccccsccsccccsccssccssccsccsccccccsccccccsccccccccsccccccccccscc"
         id="path3628"
         d="m 197.40625,332.08036 c -16.14239,-0.0647 -32.75078,1.86035 -50.03125,5.875 3.7473,7.69663 7.16821,15.43821 10.03125,23.21875 0.67652,1.84388 0.5388,3.9703 -0.36991,5.71151 -0.90872,1.74122 -2.57434,3.07024 -4.47384,3.56974 -60.817785,15.83821 -108.871675,63.14301 -125.78125,123.53125 -0.517441,1.85907 -1.831222,3.48201 -3.541788,4.37524 -1.710566,0.89323 -3.793179,1.04384 -5.614462,0.40601 -8.064774,-2.81313 -16.0542154,-6.06331 -24.03125,-9.53125 -10.251146,39.21464 -8.02325,72.88771 0.71875,106.1875 8.0622612,-3.16856 16.107391,-6.07131 24.125,-8.46875 1.78338,-0.53003 3.774794,-0.3192 5.407656,0.57251 1.632862,0.8917 2.886724,2.45311 3.404844,4.23999 16.829741,57.92006 62.421041,103.53531 120.28125,120.46875 1.84413,0.54361 3.44212,1.87378 4.31125,3.5887 0.86912,1.71492 0.997,3.79015 0.345,5.5988 -2.86936,7.89729 -6.02733,15.64194 -9.15625,23.375 35.11179,9.61952 69.22498,12.95987 109.84375,1.09375 -3.2631,-8.04579 -6.57543,-16.11339 -9.75,-24.46875 -0.68323,-1.81528 -0.57582,-3.91284 0.28926,-5.64884 0.86507,-1.73599 2.47505,-3.08481 4.33574,-3.63241 57.38645,-16.89537 102.61453,-62.03438 119.65625,-119.375 0.54522,-1.82958 1.86485,-3.41457 3.56534,-4.28229 1.7005,-0.86772 3.75828,-1.00613 5.55966,-0.37396 8.39684,2.94176 16.51181,6.15668 24.625,9.34375 10.12615,-35.81722 10.4251,-71.49523 0.25,-109.0625 -8.00299,3.38832 -16.07032,6.64413 -24.28125,9.53125 -1.8172,0.63884 -3.89575,0.49258 -5.60559,-0.39443 -1.70984,-0.88702 -3.02642,-2.50206 -3.55066,-4.35557 C 351.29487,434.71 305.38516,388.6408 247.03125,371.73661 c -1.83349,-0.53263 -3.42768,-1.84151 -4.30707,-3.53622 -0.87938,-1.69471 -1.03176,-3.75175 -0.41168,-5.55753 2.74842,-7.93948 5.80388,-15.75602 8.96875,-23.5 -16.49822,-4.09334 -33.1068,-6.63355 -50.125,-7 -1.29276,-0.0278 -2.54707,-0.0577 -3.75,-0.0625 z m -39.84375,47.15625 c 3.20473,-0.15803 6.36324,2.14906 7.1875,5.25 9.32073,35.47629 10.75086,71.27623 8,106.03125 -0.8737,22.96908 -18.75,25.98718 -27.96875,26.875 -35.03153,1.39702 -69.841542,-2.21697 -103.96875,-11.4375 -1.801176,-0.48584 -3.389433,-1.71571 -4.310634,-3.33795 -0.921201,-1.62224 -1.163684,-3.61631 -0.658116,-5.41205 16.014228,-57.71879 62.11775,-102.94514 120.3125,-117.75 0.45982,-0.11989 0.93174,-0.1933 1.40625,-0.21875 z m 84.375,1.3125 c 0.66364,-0.01 1.32856,0.0749 1.96875,0.25 55.55471,16.00992 99.29893,59.97748 115.03125,115.65625 0.50778,1.78756 0.27407,3.77371 -0.63478,5.39457 -0.90884,1.62087 -2.48149,2.85626 -4.27147,3.35543 -31.88104,8.9598 -65.32461,13.63235 -100.46875,12.1875 -21.60336,-0.98661 -25.97387,-12.64117 -27.84375,-25.84375 -4.25059,-37.11527 0.15629,-72.35962 9.40625,-105.8125 0.81827,-2.95422 3.74705,-5.18439 6.8125,-5.1875 z M 254.5,569.00504 c 9.71725,-0.62122 20.06381,-0.0894 24.3125,-0.0497 26.46461,0.24757 51.27184,4.97809 74.75,11.78125 1.78001,0.51854 3.33539,1.76724 4.22643,3.39309 0.89103,1.62585 1.10671,3.60876 0.58607,5.38816 -16.19006,54.82078 -59.58899,98.03246 -114.5625,113.84375 -3.4867,1.00173 -7.57181,-1.17308 -8.6875,-4.625 C 226,672.50504 220,624.50505 224.5,594.50504 c 4.5,-17.99999 12.01278,-21.62625 30,-25.5 z m -111.90625,1.13782 c 17.80533,2.22111 23.87912,6.0806 30.15625,26.7187 3.03441,35.61827 -3.02206,69.4644 -12.90625,101.71875 -1.0644,3.51034 -5.19212,5.75913 -8.71875,4.75 C 96.282067,687.53087 52.938052,644.49438 36.6875,589.83036 c -0.555641,-1.85719 -0.303946,-3.94102 0.677903,-5.6125 0.981848,-1.67148 2.679396,-2.906 4.572097,-3.325 34.614078,-7.63884 68.41924,-9.61039 100.65625,-10.75 z"
         style="fill:#ffffff;fill-opacity:1;fill-rule:evenodd;stroke:none" />
      <path
         transform="translate(9.2857143,-9.2857143)"
         d="m 187.375,346.34375 c -13.19464,-0.0529 -26.77218,1.35451 -40.8125,4.125 2.46441,5.40978 4.81748,10.83719 6.84375,16.34375 a 6.408791,6.408791 0 0 1 0.0312,0 c 1.32759,3.61841 1.056,7.50559 -0.71875,10.90625 -0.66201,1.2685 -1.54766,2.34085 -2.53125,3.3125 5.13934,0.85409 9.34871,4.38449 10.75,9.65625 a 6.408791,6.408791 0 0 1 0,0.0312 c 9.52668,36.26019 10.95318,72.70862 8.1875,107.90625 l 0.0312,0 c -0.003,0.0872 -0.0274,0.16314 -0.0312,0.25 -0.5689,12.99082 -6.52875,21.90554 -13.71875,26.59375 -7.23808,4.71956 -15.09435,5.68381 -20,6.15625 a 6.408791,6.408791 0 0 1 -0.375,0.0312 C 99.391158,533.07754 63.935683,529.39675 29.15625,520 c -3.523349,-0.95037 -6.423938,-3.21433 -8.21875,-6.375 -0.746517,-1.31462 -1.226978,-2.71825 -1.5,-4.15625 -0.948705,0.94338 -1.989711,1.79572 -3.21875,2.4375 -3.349454,1.74903 -7.1544648,2.0295 -10.71875,0.78125 -5.84562134,-2.03905 -11.6094455,-4.33486 -17.34375,-6.71875 -7.282948,32.32196 -5.851238,60.63677 0.71875,88.75 5.8888742,-2.19432 11.7891726,-4.25818 17.71875,-6.03125 a 6.408791,6.408791 0 0 1 0.03125,-0.0312 c 3.454949,-1.02683 7.081406,-0.65369 10.28125,1.09375 1.353226,0.73899 2.502241,1.71244 3.5,2.8125 0.310218,-1.29295 0.741535,-2.5652 1.4375,-3.75 1.915533,-3.26097 5.043814,-5.49895 8.71875,-6.3125 35.244869,-7.77805 69.47278,-9.76301 101.8125,-10.90625 a 6.408791,6.408791 0 0 1 1,0.0625 c 9.26627,1.15591 16.74004,2.83382 22.75,7.90625 6.00996,5.07243 9.47636,12.51809 12.75,23.28125 a 6.408791,6.408791 0 0 1 0.25,1.34375 c 3.12477,36.67897 -3.11896,71.37106 -13.15625,104.125 -1.56699,5.16787 -5.75098,8.5939 -10.65625,9.375 0.86522,0.92564 1.65853,1.9267 2.25,3.09375 1.69572,3.34593 1.92706,7.16227 0.65625,10.6875 -2.07673,5.71576 -4.33758,11.22105 -6.5625,16.75 29.89375,7.47233 58.85845,9.6755 92.5625,1.125 -2.3738,-5.85318 -4.77022,-11.6658 -7.09375,-17.78125 a 6.408791,6.408791 0 0 1 0,-0.0312 c -1.3307,-3.53554 -1.16871,-7.3386 0.53125,-10.75 0.578,-1.15991 1.34264,-2.17447 2.1875,-3.09375 -4.86771,-0.69677 -9.06495,-3.95504 -10.75,-9 -0.015,-0.045 -0.0479,-0.0797 -0.0625,-0.125 -9.61239,-27.71565 -15.64113,-75.35078 -10.875,-107.125 a 6.408791,6.408791 0 0 1 0.125,-0.625 c 2.42895,-9.71581 6.14919,-16.81863 12.21875,-21.53125 6.06956,-4.71262 13.43983,-6.67139 22.65625,-8.65625 a 6.408791,6.408791 0 0 1 0.9375,-0.15625 c 5.11252,-0.32684 10.28697,-0.34289 14.71875,-0.28125 4.41918,0.0615 8.14859,0.20087 10.0625,0.21875 27.19069,0.25436 52.59432,5.11326 76.46875,12.03125 3.50257,1.02034 6.34002,3.3258 8.0625,6.46875 0.70934,1.29433 1.14825,2.70928 1.40625,4.125 0.95845,-0.93244 2.01869,-1.77794 3.25,-2.40625 3.31978,-1.694 7.07374,-1.9228 10.59375,-0.6875 l 0,-0.0312 c 6.20908,2.1753 12.10101,4.52563 18.03125,6.84375 7.47219,-30.23399 7.67049,-60.26444 0.1875,-91.84375 -5.82284,2.38361 -11.62427,4.79628 -17.625,6.90625 -3.56339,1.25272 -7.34903,0.96568 -10.65625,-0.75 -1.22343,-0.63468 -2.29159,-1.46562 -3.25,-2.40625 -0.26226,1.44226 -0.69082,2.85586 -1.4375,4.1875 -1.78784,3.18852 -4.69731,5.44166 -8.15625,6.40625 l 0,-0.0312 c -32.44613,9.11861 -66.56009,13.9125 -102.4375,12.4375 a 6.408791,6.408791 0 0 1 -0.0312,0 c -11.93076,-0.54487 -20.58827,-4.37223 -25.90625,-10.5625 -5.31798,-6.19027 -7.00457,-13.75283 -8,-20.78125 a 6.408791,6.408791 0 0 1 -0.0312,-0.1875 c -4.35974,-38.0683 0.17501,-74.1867 9.59375,-108.25 1.42792,-5.15526 5.5768,-8.61874 10.65625,-9.5 -0.9982,-0.98138 -1.89335,-2.08544 -2.5625,-3.375 -1.72372,-3.32189 -1.98898,-7.07662 -0.78125,-10.59375 1.97004,-5.69095 4.21522,-11.21173 6.40625,-16.75 -13.77293,-3.02013 -27.56266,-4.9472 -41.625,-5.25 -1.30243,-0.028 -2.54173,-0.058 -3.65625,-0.0625 z"
         id="path3721"
         style="fill:#ffffff;fill-opacity:1;fill-rule:evenodd;stroke:#000000;stroke-width:3;stroke-miterlimit:4;stroke-opacity:1;stroke-dasharray:none;filter:url(#filter3727)"
         inkscape:original="M 187.40625 339.9375 C 171.26386 339.8728 154.65547 341.79785 137.375 345.8125 C 141.1223 353.50913 144.54321 361.25071 147.40625 369.03125 C 148.08277 370.87513 147.93996 373.00879 147.03125 374.75 C 146.12253 376.49122 144.462 377.813 142.5625 378.3125 C 81.744715 394.15071 33.690825 441.45551 16.78125 501.84375 C 16.263809 503.70282 14.960566 505.32552 13.25 506.21875 C 11.539434 507.11198 9.4462833 507.26283 7.625 506.625 C -0.43977405 503.81187 -8.4292154 500.56169 -16.40625 497.09375 C -26.657396 536.30839 -24.4295 569.98146 -15.6875 603.28125 C -7.6252388 600.11269 0.41989095 597.20994 8.4375 594.8125 C 10.22088 594.28247 12.210888 594.48329 13.84375 595.375 C 15.476612 596.2667 16.73188 597.83812 17.25 599.625 C 34.079741 657.54506 79.671041 703.16031 137.53125 720.09375 C 139.37538 720.63736 140.97462 721.97258 141.84375 723.6875 C 142.71287 725.40242 142.8395 727.4726 142.1875 729.28125 C 139.31814 737.17854 136.16017 744.92319 133.03125 752.65625 C 168.14304 762.27577 202.25623 765.61612 242.875 753.75 C 239.6119 745.70421 236.29957 737.63661 233.125 729.28125 C 232.44177 727.46597 232.54117 725.361 233.40625 723.625 C 234.27132 721.88901 235.88931 720.5476 237.75 720 C 295.13645 703.10463 340.36453 657.96562 357.40625 600.625 C 357.95147 598.79542 359.26826 597.21147 360.96875 596.34375 C 362.66925 595.47603 364.72987 595.33658 366.53125 595.96875 C 374.92809 598.91051 383.04306 602.12543 391.15625 605.3125 C 401.2824 569.49528 401.58135 533.81727 391.40625 496.25 C 383.40326 499.63832 375.33593 502.89413 367.125 505.78125 C 365.3078 506.42009 363.24109 506.26201 361.53125 505.375 C 359.82141 504.48798 358.49299 502.88476 357.96875 501.03125 C 341.29487 442.56714 295.38516 396.49794 237.03125 379.59375 C 235.19776 379.06112 233.59814 377.75721 232.71875 376.0625 C 231.83937 374.36779 231.69242 372.30578 232.3125 370.5 C 235.06092 362.56052 238.11638 354.74398 241.28125 347 C 224.78303 342.90666 208.17445 340.36645 191.15625 340 C 189.86349 339.9722 188.60918 339.9423 187.40625 339.9375 z M 147.5625 387.09375 C 150.76723 386.93572 153.92574 389.24281 154.75 392.34375 C 164.07073 427.82004 165.50086 463.61998 162.75 498.375 C 161.8763 521.34408 144 524.36218 134.78125 525.25 C 99.749722 526.64702 64.939708 523.03303 30.8125 513.8125 C 29.011324 513.32666 27.421201 512.09099 26.5 510.46875 C 25.578799 508.84651 25.338182 506.85824 25.84375 505.0625 C 41.857978 447.34371 87.9615 402.11736 146.15625 387.3125 C 146.61607 387.19261 147.08799 387.1192 147.5625 387.09375 z M 231.9375 388.40625 C 232.60114 388.39625 233.26606 388.48115 233.90625 388.65625 C 289.46096 404.66617 333.20518 448.63373 348.9375 504.3125 C 349.44528 506.10006 349.22135 508.09789 348.3125 509.71875 C 347.40366 511.33962 345.82123 512.56333 344.03125 513.0625 C 312.15021 522.0223 278.70664 526.69485 243.5625 525.25 C 221.95914 524.26339 217.58863 512.60883 215.71875 499.40625 C 211.46816 462.29098 215.87504 427.04663 225.125 393.59375 C 225.94327 390.63953 228.87205 388.40936 231.9375 388.40625 z M 258.71875 576.59375 C 263.05113 576.65401 266.68815 576.79265 268.8125 576.8125 C 295.27711 577.06007 320.08434 581.79059 343.5625 588.59375 C 345.34251 589.11229 346.89021 590.37415 347.78125 592 C 348.67228 593.62585 348.89564 595.5956 348.375 597.375 C 332.18494 652.19578 288.78601 695.40746 233.8125 711.21875 C 230.3258 712.22048 226.24069 710.04567 225.125 706.59375 C 216 680.3622 210 632.37501 214.5 602.375 C 219 584.37501 226.51278 580.74875 244.5 576.875 C 249.35863 576.56439 254.38637 576.53349 258.71875 576.59375 z M 132.59375 578 C 150.39908 580.22111 156.47287 584.08065 162.75 604.71875 C 165.78441 640.33702 159.72794 674.18315 149.84375 706.4375 C 148.77935 709.94784 144.65163 712.19663 141.125 711.1875 C 86.282067 695.38806 42.938052 652.35152 26.6875 597.6875 C 26.131859 595.83031 26.393151 593.73398 27.375 592.0625 C 28.356848 590.39102 30.044799 589.169 31.9375 588.75 C 66.551578 581.11116 100.35674 579.13961 132.59375 578 z "
         inkscape:radius="-6.4081502"
         sodipodi:type="inkscape:offset" />
      <g
         transform="translate(10,-9.2857143)"
         id="g3790">
        <path
           d="m 187.375,351.34375 c -10.91737,-0.0438 -22.1155,0.90289 -33.65625,2.84375 1.54417,3.60883 3.02453,7.23623 4.375,10.90625 a 11.402841,11.402841 0 0 1 0.0312,0 c 1.6328,4.45024 1.42454,9.07085 -0.34375,13.34375 3.81874,2.37115 6.71481,6.13376 8,10.96875 a 11.402841,11.402841 0 0 1 0,0.0312 c 9.68467,36.8615 11.14978,73.83868 8.375,109.375 -0.005,0.0623 -0.0264,0.1252 -0.0312,0.1875 -0.004,0.0955 0.005,0.18609 0,0.28125 -0.685,14.17966 -7.68089,24.95055 -16,30.375 -8.41275,5.4855 -17.11347,6.44282 -22.25,6.9375 a 11.402841,11.402841 0 0 1 -0.625,0.0625 c -36.114315,1.4402 -72.11857,-2.30968 -107.40625,-11.84375 -4.554962,-1.22863 -8.230814,-4.01417 -10.71875,-7.9375 -4.243153,1.80957 -8.8217164,2.04311 -13.25,0.5 -0.00922,-0.003 -0.022027,0.003 -0.03125,0 -4.09150759,-1.4277 -8.1425819,-2.96516 -12.15625,-4.5625 -5.318242,27.10638 -4.27646,51.22828 0.75,75.25 4.2231364,-1.49532 8.44931014,-2.91084 12.71875,-4.1875 a 11.402841,11.402841 0 0 1 0.03125,0 c 4.4614823,-1.32598 9.07731,-0.91396 13.28125,1.125 2.655584,-3.76182 6.459115,-6.36975 11,-7.375 35.736413,-7.88652 70.298991,-9.88518 102.71875,-11.03125 A 11.402841,11.402841 0 0 1 134,566.6875 c 9.5496,1.19126 18.17955,3.01589 25.34375,9.0625 7.1642,6.04661 10.9336,14.54702 14.3125,25.65625 A 11.402841,11.402841 0 0 1 174.125,603.75 c 3.19427,37.49471 -3.2235,72.86502 -13.375,106 -0.003,0.01 0.003,0.0217 0,0.0312 -1.43561,4.71098 -4.36445,8.3128 -8.0625,10.5625 1.59314,4.13465 1.7493,8.56676 0.21875,12.8125 a 11.402841,11.402841 0 0 1 0,0.0312 c -1.44884,3.98763 -3.00538,7.73265 -4.53125,11.59375 25.72704,5.89055 50.63947,7.44902 79.09375,1.125 -1.67756,-4.1762 -3.3495,-8.21843 -5,-12.5625 a 11.402841,11.402841 0 0 1 0,-0.0312 c -1.58651,-4.21521 -1.53638,-8.64158 0,-12.8125 -3.65911,-2.14755 -6.55905,-5.60826 -8.09375,-10.15625 l -0.0312,0 c -0.0265,-0.0763 -0.036,-0.17343 -0.0625,-0.25 -9.9857,-28.8645 -16.03445,-76.25992 -11.0625,-109.40625 a 11.402841,11.402841 0 0 1 0.21875,-1.0625 c 2.5684,-10.2736 6.85471,-18.76464 14,-24.3125 7.14529,-5.54786 15.2662,-7.5715 24.65625,-9.59375 a 11.402841,11.402841 0 0 1 1.6875,-0.21875 c 5.31037,-0.33949 10.58451,-0.37522 15.09375,-0.3125 4.48682,0.0624 8.28132,0.2024 10.03125,0.21875 27.75648,0.25966 53.66052,5.24254 77.84375,12.25 4.49388,1.30912 8.04694,4.15053 10.4375,8 4.20985,-1.74946 8.74762,-1.97368 13.125,-0.4375 4.46995,1.56601 8.59545,3.23067 12.875,4.875 5.63594,-25.85946 5.78182,-51.52949 0.15625,-78.4375 -4.14332,1.63742 -8.18022,3.37806 -12.4375,4.875 -4.42981,1.55731 -9.02326,1.30167 -13.21875,-0.46875 -2.48152,3.94702 -6.12295,6.72351 -10.5625,7.96875 -0.01,0.003 -0.0217,-0.003 -0.0312,0 -32.87783,9.23705 -67.56194,14.12305 -104,12.625 a 11.402841,11.402841 0 0 1 -0.0625,-0.0312 c -12.8106,-0.58505 -23.11336,-4.91978 -29.4375,-12.28125 C 207.26961,516.98228 205.48008,508.36127 204.4375,501 a 11.402841,11.402841 0 0 1 -0.0312,-0.28125 c -4.44479,-38.81095 0.16848,-75.61728 9.71875,-110.15625 1.30075,-4.69613 4.20089,-8.24803 7.9375,-10.59375 -1.80653,-4.2315 -2.03861,-8.76656 -0.53125,-13.15625 a 11.402841,11.402841 0 0 1 0,-0.0312 c 1.35809,-3.92318 2.90907,-7.66756 4.375,-11.5 -11.61077,-2.25834 -23.22077,-3.62136 -35,-3.875 -1.30996,-0.0282 -2.48562,-0.0583 -3.53125,-0.0625 z"
           id="path3731"
           style="fill:#ffffff;fill-opacity:1;fill-rule:evenodd;stroke:#000000;stroke-width:3;stroke-miterlimit:4;stroke-opacity:1;stroke-dasharray:none;filter:url(#filter3727)"
           inkscape:original="M 187.40625 339.9375 C 171.26386 339.8728 154.65547 341.79785 137.375 345.8125 C 141.1223 353.50913 144.54321 361.25071 147.40625 369.03125 C 148.08277 370.87513 147.93996 373.00879 147.03125 374.75 C 146.12253 376.49122 144.462 377.813 142.5625 378.3125 C 81.744715 394.15071 33.690825 441.45551 16.78125 501.84375 C 16.263809 503.70282 14.960566 505.32552 13.25 506.21875 C 11.539434 507.11198 9.4462833 507.26283 7.625 506.625 C -0.43977405 503.81187 -8.4292154 500.56169 -16.40625 497.09375 C -26.657396 536.30839 -24.4295 569.98146 -15.6875 603.28125 C -7.6252388 600.11269 0.41989095 597.20994 8.4375 594.8125 C 10.22088 594.28247 12.210888 594.48329 13.84375 595.375 C 15.476612 596.2667 16.73188 597.83812 17.25 599.625 C 34.079741 657.54506 79.671041 703.16031 137.53125 720.09375 C 139.37538 720.63736 140.97462 721.97258 141.84375 723.6875 C 142.71287 725.40242 142.8395 727.4726 142.1875 729.28125 C 139.31814 737.17854 136.16017 744.92319 133.03125 752.65625 C 168.14304 762.27577 202.25623 765.61612 242.875 753.75 C 239.6119 745.70421 236.29957 737.63661 233.125 729.28125 C 232.44177 727.46597 232.54117 725.361 233.40625 723.625 C 234.27132 721.88901 235.88931 720.5476 237.75 720 C 295.13645 703.10463 340.36453 657.96562 357.40625 600.625 C 357.95147 598.79542 359.26826 597.21147 360.96875 596.34375 C 362.66925 595.47603 364.72987 595.33658 366.53125 595.96875 C 374.92809 598.91051 383.04306 602.12543 391.15625 605.3125 C 401.2824 569.49528 401.58135 533.81727 391.40625 496.25 C 383.40326 499.63832 375.33593 502.89413 367.125 505.78125 C 365.3078 506.42009 363.24109 506.26201 361.53125 505.375 C 359.82141 504.48798 358.49299 502.88476 357.96875 501.03125 C 341.29487 442.56714 295.38516 396.49794 237.03125 379.59375 C 235.19776 379.06112 233.59814 377.75721 232.71875 376.0625 C 231.83937 374.36779 231.69242 372.30578 232.3125 370.5 C 235.06092 362.56052 238.11638 354.74398 241.28125 347 C 224.78303 342.90666 208.17445 340.36645 191.15625 340 C 189.86349 339.9722 188.60918 339.9423 187.40625 339.9375 z M 147.5625 387.09375 C 150.76723 386.93572 153.92574 389.24281 154.75 392.34375 C 164.07073 427.82004 165.50086 463.61998 162.75 498.375 C 161.8763 521.34408 144 524.36218 134.78125 525.25 C 99.749722 526.64702 64.939708 523.03303 30.8125 513.8125 C 29.011324 513.32666 27.421201 512.09099 26.5 510.46875 C 25.578799 508.84651 25.338182 506.85824 25.84375 505.0625 C 41.857978 447.34371 87.9615 402.11736 146.15625 387.3125 C 146.61607 387.19261 147.08799 387.1192 147.5625 387.09375 z M 231.9375 388.40625 C 232.60114 388.39625 233.26606 388.48115 233.90625 388.65625 C 289.46096 404.66617 333.20518 448.63373 348.9375 504.3125 C 349.44528 506.10006 349.22135 508.09789 348.3125 509.71875 C 347.40366 511.33962 345.82123 512.56333 344.03125 513.0625 C 312.15021 522.0223 278.70664 526.69485 243.5625 525.25 C 221.95914 524.26339 217.58863 512.60883 215.71875 499.40625 C 211.46816 462.29098 215.87504 427.04663 225.125 393.59375 C 225.94327 390.63953 228.87205 388.40936 231.9375 388.40625 z M 258.71875 576.59375 C 263.05113 576.65401 266.68815 576.79265 268.8125 576.8125 C 295.27711 577.06007 320.08434 581.79059 343.5625 588.59375 C 345.34251 589.11229 346.89021 590.37415 347.78125 592 C 348.67228 593.62585 348.89564 595.5956 348.375 597.375 C 332.18494 652.19578 288.78601 695.40746 233.8125 711.21875 C 230.3258 712.22048 226.24069 710.04567 225.125 706.59375 C 216 680.3622 210 632.37501 214.5 602.375 C 219 584.37501 226.51278 580.74875 244.5 576.875 C 249.35863 576.56439 254.38637 576.53349 258.71875 576.59375 z M 132.59375 578 C 150.39908 580.22111 156.47287 584.08065 162.75 604.71875 C 165.78441 640.33702 159.72794 674.18315 149.84375 706.4375 C 148.77935 709.94784 144.65163 712.19663 141.125 711.1875 C 86.282067 695.38806 42.938052 652.35152 26.6875 597.6875 C 26.131859 595.83031 26.393151 593.73398 27.375 592.0625 C 28.356848 590.39102 30.044799 589.169 31.9375 588.75 C 66.551578 581.11116 100.35674 579.13961 132.59375 578 z "
           inkscape:radius="-11.401701"
           sodipodi:type="inkscape:offset" />
        <path
           sodipodi:type="inkscape:offset"
           inkscape:radius="-16.39259"
           inkscape:original="M 187.40625 339.9375 C 171.26386 339.8728 154.65547 341.79785 137.375 345.8125 C 141.1223 353.50913 144.54321 361.25071 147.40625 369.03125 C 148.08277 370.87513 147.93996 373.00879 147.03125 374.75 C 146.12253 376.49122 144.462 377.813 142.5625 378.3125 C 81.744715 394.15071 33.690825 441.45551 16.78125 501.84375 C 16.263809 503.70282 14.960566 505.32552 13.25 506.21875 C 11.539434 507.11198 9.4462833 507.26283 7.625 506.625 C -0.43977405 503.81187 -8.4292154 500.56169 -16.40625 497.09375 C -26.657396 536.30839 -24.4295 569.98146 -15.6875 603.28125 C -7.6252388 600.11269 0.41989095 597.20994 8.4375 594.8125 C 10.22088 594.28247 12.210888 594.48329 13.84375 595.375 C 15.476612 596.2667 16.73188 597.83812 17.25 599.625 C 34.079741 657.54506 79.671041 703.16031 137.53125 720.09375 C 139.37538 720.63736 140.97462 721.97258 141.84375 723.6875 C 142.71287 725.40242 142.8395 727.4726 142.1875 729.28125 C 139.31814 737.17854 136.16017 744.92319 133.03125 752.65625 C 168.14304 762.27577 202.25623 765.61612 242.875 753.75 C 239.6119 745.70421 236.29957 737.63661 233.125 729.28125 C 232.44177 727.46597 232.54117 725.361 233.40625 723.625 C 234.27132 721.88901 235.88931 720.5476 237.75 720 C 295.13645 703.10463 340.36453 657.96562 357.40625 600.625 C 357.95147 598.79542 359.26826 597.21147 360.96875 596.34375 C 362.66925 595.47603 364.72987 595.33658 366.53125 595.96875 C 374.92809 598.91051 383.04306 602.12543 391.15625 605.3125 C 401.2824 569.49528 401.58135 533.81727 391.40625 496.25 C 383.40326 499.63832 375.33593 502.89413 367.125 505.78125 C 365.3078 506.42009 363.24109 506.26201 361.53125 505.375 C 359.82141 504.48798 358.49299 502.88476 357.96875 501.03125 C 341.29487 442.56714 295.38516 396.49794 237.03125 379.59375 C 235.19776 379.06112 233.59814 377.75721 232.71875 376.0625 C 231.83937 374.36779 231.69242 372.30578 232.3125 370.5 C 235.06092 362.56052 238.11638 354.74398 241.28125 347 C 224.78303 342.90666 208.17445 340.36645 191.15625 340 C 189.86349 339.9722 188.60918 339.9423 187.40625 339.9375 z M 147.5625 387.09375 C 150.76723 386.93572 153.92574 389.24281 154.75 392.34375 C 164.07073 427.82004 165.50086 463.61998 162.75 498.375 C 161.8763 521.34408 144 524.36218 134.78125 525.25 C 99.749722 526.64702 64.939708 523.03303 30.8125 513.8125 C 29.011324 513.32666 27.421201 512.09099 26.5 510.46875 C 25.578799 508.84651 25.338182 506.85824 25.84375 505.0625 C 41.857978 447.34371 87.9615 402.11736 146.15625 387.3125 C 146.61607 387.19261 147.08799 387.1192 147.5625 387.09375 z M 231.9375 388.40625 C 232.60114 388.39625 233.26606 388.48115 233.90625 388.65625 C 289.46096 404.66617 333.20518 448.63373 348.9375 504.3125 C 349.44528 506.10006 349.22135 508.09789 348.3125 509.71875 C 347.40366 511.33962 345.82123 512.56333 344.03125 513.0625 C 312.15021 522.0223 278.70664 526.69485 243.5625 525.25 C 221.95914 524.26339 217.58863 512.60883 215.71875 499.40625 C 211.46816 462.29098 215.87504 427.04663 225.125 393.59375 C 225.94327 390.63953 228.87205 388.40936 231.9375 388.40625 z M 258.71875 576.59375 C 263.05113 576.65401 266.68815 576.79265 268.8125 576.8125 C 295.27711 577.06007 320.08434 581.79059 343.5625 588.59375 C 345.34251 589.11229 346.89021 590.37415 347.78125 592 C 348.67228 593.62585 348.89564 595.5956 348.375 597.375 C 332.18494 652.19578 288.78601 695.40746 233.8125 711.21875 C 230.3258 712.22048 226.24069 710.04567 225.125 706.59375 C 216 680.3622 210 632.37501 214.5 602.375 C 219 584.37501 226.51278 580.74875 244.5 576.875 C 249.35863 576.56439 254.38637 576.53349 258.71875 576.59375 z M 132.59375 578 C 150.39908 580.22111 156.47287 584.08065 162.75 604.71875 C 165.78441 640.33702 159.72794 674.18315 149.84375 706.4375 C 148.77935 709.94784 144.65163 712.19663 141.125 711.1875 C 86.282067 695.38806 42.938052 652.35152 26.6875 597.6875 C 26.131859 595.83031 26.393151 593.73398 27.375 592.0625 C 28.356848 590.39102 30.044799 589.169 31.9375 588.75 C 66.551578 581.11116 100.35674 579.13961 132.59375 578 z "
           style="fill:#ffffff;fill-opacity:1;fill-rule:evenodd;stroke:#000000;stroke-width:3;stroke-miterlimit:4;stroke-opacity:1;stroke-dasharray:none;filter:url(#filter3727)"
           id="path3733"
           d="m 187.34375,356.34375 c -8.66311,-0.0347 -17.54251,0.62817 -26.625,1.875 0.68232,1.71888 1.42351,3.41974 2.0625,5.15625 1.60608,4.37742 1.82562,8.84874 0.84375,13.15625 3.23925,2.93952 5.70288,6.83144 6.96875,11.59375 a 16.394229,16.394229 0 0 1 0,0.0625 c 9.8453,37.47288 11.31873,74.92649 8.53125,110.8125 -0.0168,0.21662 -0.0141,0.43974 -0.0312,0.65625 l -0.0312,0 c -0.79842,15.39657 -8.76868,27.99437 -18.21875,34.15625 -9.5868,6.25104 -19.13272,7.2331 -24.5,7.75 a 16.394229,16.394229 0 0 1 -0.90625,0.0625 c -36.588286,1.4591 -73.110595,-2.32869 -108.90625,-12 -4.490165,-1.21115 -8.282905,-3.5652 -11.25,-6.875 -4.285365,1.02727 -8.7002349,0.87145 -13.0625,-0.65625 -2.22818583,-0.77723 -4.3952555,-1.64065 -6.59375,-2.46875 -3.6276985,22.01085 -2.9554175,42.01727 0.6875,61.90625 2.474686,-0.82255 4.9386329,-1.69028 7.4375,-2.4375 a 16.394229,16.394229 0 0 1 0.03125,0 c 4.406082,-1.30951 8.892233,-1.32517 13.1875,-0.0625 3.107874,-3.11258 6.988501,-5.29634 11.4375,-6.28125 C 64.633945,564.75506 99.500247,562.7739 132,561.625 a 16.394229,16.394229 0 0 1 2.625,0.0937 c 9.83279,1.22658 19.61969,3.19849 27.9375,10.21875 8.31781,7.02026 12.3909,16.54488 15.875,28 a 16.394229,16.394229 0 0 1 0.65625,3.375 c 3.26371,38.30983 -3.29674,74.35886 -13.5625,107.875 -0.006,0.0191 0.006,0.0434 0,0.0625 l -0.0312,0 c -1.40855,4.60326 -3.85161,8.38603 -7,11.1875 0.80891,4.08996 0.57117,8.30789 -0.90625,12.40625 a 16.394229,16.394229 0 0 1 0,0.0312 c -0.77942,2.14519 -1.63406,4.08872 -2.4375,6.1875 21.39976,4.38457 42.24957,5.45242 65.46875,1.09375 -0.94173,-2.38909 -1.88028,-4.60892 -2.8125,-7.0625 a 16.394229,16.394229 0 0 1 -0.0312,-0.0312 c -1.53388,-4.07538 -1.81222,-8.26894 -1.0625,-12.375 -3.10625,-2.6778 -5.53804,-6.30698 -7.03125,-10.71875 -0.0229,-0.0677 -0.0713,-0.1194 -0.0937,-0.1875 -0.0181,-0.0548 -0.0447,-0.10123 -0.0625,-0.15625 -10.36142,-30.00166 -16.4286,-77.16347 -11.25,-111.6875 a 16.394229,16.394229 0 0 1 0.3125,-1.53125 c 2.70778,-10.8311 7.56081,-20.64861 15.78125,-27.03125 8.22044,-6.38264 17.12391,-8.47162 26.6875,-10.53125 a 16.394229,16.394229 0 0 1 2.40625,-0.3125 c 5.50811,-0.35213 10.8821,-0.40755 15.46875,-0.34375 4.55443,0.0634 8.44521,0.20393 10.03125,0.21875 28.32197,0.26495 54.66439,5.3406 79.15625,12.4375 a 16.394229,16.394229 0 0 1 0.0312,0 c 4.41352,1.28572 8.07752,3.7092 10.9375,6.96875 4.21321,-0.964 8.57328,-0.80536 12.84375,0.6875 0.01,0.003 0.0217,-0.003 0.0312,0 2.59518,0.90945 4.9211,1.87471 7.4375,2.8125 3.9842,-21.38062 4.08327,-42.6658 0.125,-64.8125 -2.35379,0.88867 -4.57147,1.90707 -6.96875,2.75 -4.32377,1.52003 -8.7405,1.64201 -12.96875,0.65625 -2.96611,3.34281 -6.73241,5.70702 -11.125,6.9375 -0.01,0.003 -0.0217,-0.003 -0.0312,0 -33.31799,9.36075 -68.55337,14.30277 -105.5625,12.78125 a 16.394229,16.394229 0 0 1 -0.0625,0 c -13.68997,-0.62521 -25.67024,-5.4992 -33,-14.03125 -7.32976,-8.53205 -9.22281,-18.18107 -10.3125,-25.875 a 16.394229,16.394229 0 0 1 -0.0625,-0.4375 c -4.52979,-39.55321 0.19327,-77.04812 9.875,-112.0625 1.27632,-4.60793 3.68617,-8.40023 6.84375,-11.28125 -0.96525,-4.19523 -0.79886,-8.51246 0.65625,-12.75 a 16.394229,16.394229 0 0 1 0,-0.0625 c 0.70612,-2.03979 1.54502,-3.92694 2.28125,-5.9375 -9.39957,-1.57085 -18.7933,-2.6082 -28.28125,-2.8125 -1.31749,-0.0283 -2.49198,-0.0274 -3.46875,-0.0312 z" />
        <path
           d="m 187.3125,361.34375 c -6.42347,-0.0258 -12.95711,0.33546 -19.625,1.03125 1.39813,4.11692 1.79341,8.26885 1.3125,12.34375 2.91809,3.2885 5.16643,7.34313 6.4375,12.125 a 21.394555,21.394555 0 0 1 0,0.0625 c 10.00323,38.07401 11.45341,76.05295 8.65625,112.28125 l 0.0312,0 c -0.005,0.1377 -0.0249,0.26884 -0.0312,0.40625 -0.0121,0.15464 -0.019,0.31417 -0.0312,0.46875 l -0.0312,0 c -0.92499,16.61295 -9.86303,31.04246 -20.4375,37.9375 -10.76295,7.01794 -21.15155,7.99209 -26.75,8.53125 a 21.394555,21.394555 0 0 1 -1.21875,0.0937 c -37.053124,1.47764 -74.079844,-2.35331 -110.375,-12.15625 -0.0096,-0.003 -0.02162,0.003 -0.03125,0 -4.459866,-1.20756 -8.293851,-3.41819 -11.53125,-6.34375 -4.3236652,0.58384 -8.7217456,0.2138 -13.09375,-1.3125 -0.009273,-0.003 -0.0219774,0.003 -0.03125,0 -0.3291091,-0.11484 -0.64042505,-0.25904 -0.96875,-0.375 -2.2357754,17.02971 -1.8271728,32.86157 0.59375,48.5625 0.7118744,-0.21985 1.4104934,-0.47385 2.125,-0.6875 a 21.394555,21.394555 0 0 1 0.03125,0 c 4.4010883,-1.30803 8.846311,-1.45562 13.1875,-0.65625 3.383013,-2.7686 7.317088,-4.79299 11.78125,-5.78125 36.719857,-8.10356 71.951358,-10.09827 104.53125,-11.25 a 21.394555,21.394555 0 0 1 3.40625,0.15625 c 10.11648,1.26197 21.05776,3.31683 30.53125,11.3125 9.47349,7.99567 13.848,18.60462 17.4375,30.40625 a 21.394555,21.394555 0 0 1 0.84375,4.40625 c 3.3342,39.13724 -3.36469,75.84375 -13.75,109.75 -0.006,0.019 0.006,0.0435 0,0.0625 l -0.0312,0 c -1.38602,4.53759 -3.64899,8.3208 -6.4375,11.4375 0.40106,4.1089 -0.0554,8.28111 -1.53125,12.375 a 21.394555,21.394555 0 0 1 -0.0312,0.0625 c -0.0947,0.26052 -0.18621,0.4903 -0.28125,0.75 16.96597,3.00521 33.62584,3.64293 51.6875,0.9375 -0.18712,-0.48838 -0.3758,-0.91487 -0.5625,-1.40625 a 21.394555,21.394555 0 0 1 -0.0312,-0.0625 c -1.53098,-4.06769 -2.05473,-8.20349 -1.71875,-12.3125 -2.73925,-2.96762 -4.94838,-6.59137 -6.40625,-10.90625 l -0.0625,0.0312 c -0.0476,-0.1367 -0.0776,-0.30018 -0.125,-0.4375 -10.74035,-31.13317 -16.82398,-78.09014 -11.4375,-114 a 21.394555,21.394555 0 0 1 0.40625,-2 c 2.8474,-11.3896 8.26498,-22.53107 17.5625,-29.75 9.29752,-7.21893 18.95007,-9.37168 28.6875,-11.46875 a 21.394555,21.394555 0 0 1 3.125,-0.4375 c 5.7062,-0.36479 11.24204,-0.37738 15.90625,-0.3125 4.62215,0.0643 8.5469,0.17421 9.96875,0.1875 28.88848,0.27024 55.73021,5.43851 80.53125,12.625 a 21.394555,21.394555 0 0 1 0,0.0312 c 4.37767,1.27527 8.12156,3.48461 11.25,6.375 4.23742,-0.52455 8.54782,-0.14813 12.8125,1.34375 0.01,0.003 0.0216,-0.003 0.0312,0 0.68335,0.23947 1.26056,0.50841 1.9375,0.75 2.57602,-16.87147 2.6294,-33.71187 0.0937,-51.09375 -0.48481,0.17314 -0.95061,0.36005 -1.4375,0.53125 -4.33389,1.52359 -8.71927,1.83676 -13,1.28125 -3.24171,2.95889 -7.03055,5.1815 -11.40625,6.40625 -0.01,0.003 -0.0217,-0.003 -0.0312,0 -33.75894,9.48467 -69.51252,14.51379 -107.09375,12.96875 a 21.394555,21.394555 0 0 1 -0.0937,0 C 228.02283,545.95956 214.33719,540.54847 206,530.84375 c -8.33719,-9.70472 -10.33186,-20.4103 -11.46875,-28.4375 a 21.394555,21.394555 0 0 1 -0.0625,-0.5625 C 189.8538,461.54696 194.68658,423.3969 204.5,387.90625 a 21.394555,21.394555 0 0 1 0,-0.0312 c 1.27615,-4.60731 3.44871,-8.54644 6.28125,-11.75 -0.49862,-4.1664 -0.12257,-8.38333 1.3125,-12.5625 a 21.394555,21.394555 0 0 1 0,-0.0625 c 0.0407,-0.11769 0.0842,-0.22618 0.125,-0.34375 -7.15798,-0.9806 -14.33324,-1.62626 -21.53125,-1.78125 -1.32503,-0.0285 -2.46721,-0.0276 -3.375,-0.0312 z"
           id="path3735"
           style="fill:#ffffff;fill-opacity:1;fill-rule:evenodd;stroke:#000000;stroke-width:3;stroke-miterlimit:4;stroke-opacity:1;stroke-dasharray:none;filter:url(#filter3727)"
           inkscape:original="M 187.40625 339.9375 C 171.26386 339.8728 154.65547 341.79785 137.375 345.8125 C 141.1223 353.50913 144.54321 361.25071 147.40625 369.03125 C 148.08277 370.87513 147.93996 373.00879 147.03125 374.75 C 146.12253 376.49122 144.462 377.813 142.5625 378.3125 C 81.744715 394.15071 33.690825 441.45551 16.78125 501.84375 C 16.263809 503.70282 14.960566 505.32552 13.25 506.21875 C 11.539434 507.11198 9.4462833 507.26283 7.625 506.625 C -0.43977405 503.81187 -8.4292154 500.56169 -16.40625 497.09375 C -26.657396 536.30839 -24.4295 569.98146 -15.6875 603.28125 C -7.6252388 600.11269 0.41989095 597.20994 8.4375 594.8125 C 10.22088 594.28247 12.210888 594.48329 13.84375 595.375 C 15.476612 596.2667 16.73188 597.83812 17.25 599.625 C 34.079741 657.54506 79.671041 703.16031 137.53125 720.09375 C 139.37538 720.63736 140.97462 721.97258 141.84375 723.6875 C 142.71287 725.40242 142.8395 727.4726 142.1875 729.28125 C 139.31814 737.17854 136.16017 744.92319 133.03125 752.65625 C 168.14304 762.27577 202.25623 765.61612 242.875 753.75 C 239.6119 745.70421 236.29957 737.63661 233.125 729.28125 C 232.44177 727.46597 232.54117 725.361 233.40625 723.625 C 234.27132 721.88901 235.88931 720.5476 237.75 720 C 295.13645 703.10463 340.36453 657.96562 357.40625 600.625 C 357.95147 598.79542 359.26826 597.21147 360.96875 596.34375 C 362.66925 595.47603 364.72987 595.33658 366.53125 595.96875 C 374.92809 598.91051 383.04306 602.12543 391.15625 605.3125 C 401.2824 569.49528 401.58135 533.81727 391.40625 496.25 C 383.40326 499.63832 375.33593 502.89413 367.125 505.78125 C 365.3078 506.42009 363.24109 506.26201 361.53125 505.375 C 359.82141 504.48798 358.49299 502.88476 357.96875 501.03125 C 341.29487 442.56714 295.38516 396.49794 237.03125 379.59375 C 235.19776 379.06112 233.59814 377.75721 232.71875 376.0625 C 231.83937 374.36779 231.69242 372.30578 232.3125 370.5 C 235.06092 362.56052 238.11638 354.74398 241.28125 347 C 224.78303 342.90666 208.17445 340.36645 191.15625 340 C 189.86349 339.9722 188.60918 339.9423 187.40625 339.9375 z M 147.5625 387.09375 C 150.76723 386.93572 153.92574 389.24281 154.75 392.34375 C 164.07073 427.82004 165.50086 463.61998 162.75 498.375 C 161.8763 521.34408 144 524.36218 134.78125 525.25 C 99.749722 526.64702 64.939708 523.03303 30.8125 513.8125 C 29.011324 513.32666 27.421201 512.09099 26.5 510.46875 C 25.578799 508.84651 25.338182 506.85824 25.84375 505.0625 C 41.857978 447.34371 87.9615 402.11736 146.15625 387.3125 C 146.61607 387.19261 147.08799 387.1192 147.5625 387.09375 z M 231.9375 388.40625 C 232.60114 388.39625 233.26606 388.48115 233.90625 388.65625 C 289.46096 404.66617 333.20518 448.63373 348.9375 504.3125 C 349.44528 506.10006 349.22135 508.09789 348.3125 509.71875 C 347.40366 511.33962 345.82123 512.56333 344.03125 513.0625 C 312.15021 522.0223 278.70664 526.69485 243.5625 525.25 C 221.95914 524.26339 217.58863 512.60883 215.71875 499.40625 C 211.46816 462.29098 215.87504 427.04663 225.125 393.59375 C 225.94327 390.63953 228.87205 388.40936 231.9375 388.40625 z M 258.71875 576.59375 C 263.05113 576.65401 266.68815 576.79265 268.8125 576.8125 C 295.27711 577.06007 320.08434 581.79059 343.5625 588.59375 C 345.34251 589.11229 346.89021 590.37415 347.78125 592 C 348.67228 593.62585 348.89564 595.5956 348.375 597.375 C 332.18494 652.19578 288.78601 695.40746 233.8125 711.21875 C 230.3258 712.22048 226.24069 710.04567 225.125 706.59375 C 216 680.3622 210 632.37501 214.5 602.375 C 219 584.37501 226.51278 580.74875 244.5 576.875 C 249.35863 576.56439 254.38637 576.53349 258.71875 576.59375 z M 132.59375 578 C 150.39908 580.22111 156.47287 584.08065 162.75 604.71875 C 165.78441 640.33702 159.72794 674.18315 149.84375 706.4375 C 148.77935 709.94784 144.65163 712.19663 141.125 711.1875 C 86.282067 695.38806 42.938052 652.35152 26.6875 597.6875 C 26.131859 595.83031 26.393151 593.73398 27.375 592.0625 C 28.356848 590.39102 30.044799 589.169 31.9375 588.75 C 66.551578 581.11116 100.35674 579.13961 132.59375 578 z "
           inkscape:radius="-21.392416"
           sodipodi:type="inkscape:offset" />
        <path
           sodipodi:type="inkscape:offset"
           inkscape:radius="-27.082623"
           inkscape:original="M 187.40625 339.9375 C 171.26386 339.8728 154.65547 341.79785 137.375 345.8125 C 141.1223 353.50913 144.54321 361.25071 147.40625 369.03125 C 148.08277 370.87513 147.93996 373.00879 147.03125 374.75 C 146.12253 376.49122 144.462 377.813 142.5625 378.3125 C 81.744715 394.15071 33.690825 441.45551 16.78125 501.84375 C 16.263809 503.70282 14.960566 505.32552 13.25 506.21875 C 11.539434 507.11198 9.4462833 507.26283 7.625 506.625 C -0.43977405 503.81187 -8.4292154 500.56169 -16.40625 497.09375 C -26.657396 536.30839 -24.4295 569.98146 -15.6875 603.28125 C -7.6252388 600.11269 0.41989095 597.20994 8.4375 594.8125 C 10.22088 594.28247 12.210888 594.48329 13.84375 595.375 C 15.476612 596.2667 16.73188 597.83812 17.25 599.625 C 34.079741 657.54506 79.671041 703.16031 137.53125 720.09375 C 139.37538 720.63736 140.97462 721.97258 141.84375 723.6875 C 142.71287 725.40242 142.8395 727.4726 142.1875 729.28125 C 139.31814 737.17854 136.16017 744.92319 133.03125 752.65625 C 168.14304 762.27577 202.25623 765.61612 242.875 753.75 C 239.6119 745.70421 236.29957 737.63661 233.125 729.28125 C 232.44177 727.46597 232.54117 725.361 233.40625 723.625 C 234.27132 721.88901 235.88931 720.5476 237.75 720 C 295.13645 703.10463 340.36453 657.96562 357.40625 600.625 C 357.95147 598.79542 359.26826 597.21147 360.96875 596.34375 C 362.66925 595.47603 364.72987 595.33658 366.53125 595.96875 C 374.92809 598.91051 383.04306 602.12543 391.15625 605.3125 C 401.2824 569.49528 401.58135 533.81727 391.40625 496.25 C 383.40326 499.63832 375.33593 502.89413 367.125 505.78125 C 365.3078 506.42009 363.24109 506.26201 361.53125 505.375 C 359.82141 504.48798 358.49299 502.88476 357.96875 501.03125 C 341.29487 442.56714 295.38516 396.49794 237.03125 379.59375 C 235.19776 379.06112 233.59814 377.75721 232.71875 376.0625 C 231.83937 374.36779 231.69242 372.30578 232.3125 370.5 C 235.06092 362.56052 238.11638 354.74398 241.28125 347 C 224.78303 342.90666 208.17445 340.36645 191.15625 340 C 189.86349 339.9722 188.60918 339.9423 187.40625 339.9375 z M 147.5625 387.09375 C 150.76723 386.93572 153.92574 389.24281 154.75 392.34375 C 164.07073 427.82004 165.50086 463.61998 162.75 498.375 C 161.8763 521.34408 144 524.36218 134.78125 525.25 C 99.749722 526.64702 64.939708 523.03303 30.8125 513.8125 C 29.011324 513.32666 27.421201 512.09099 26.5 510.46875 C 25.578799 508.84651 25.338182 506.85824 25.84375 505.0625 C 41.857978 447.34371 87.9615 402.11736 146.15625 387.3125 C 146.61607 387.19261 147.08799 387.1192 147.5625 387.09375 z M 231.9375 388.40625 C 232.60114 388.39625 233.26606 388.48115 233.90625 388.65625 C 289.46096 404.66617 333.20518 448.63373 348.9375 504.3125 C 349.44528 506.10006 349.22135 508.09789 348.3125 509.71875 C 347.40366 511.33962 345.82123 512.56333 344.03125 513.0625 C 312.15021 522.0223 278.70664 526.69485 243.5625 525.25 C 221.95914 524.26339 217.58863 512.60883 215.71875 499.40625 C 211.46816 462.29098 215.87504 427.04663 225.125 393.59375 C 225.94327 390.63953 228.87205 388.40936 231.9375 388.40625 z M 258.71875 576.59375 C 263.05113 576.65401 266.68815 576.79265 268.8125 576.8125 C 295.27711 577.06007 320.08434 581.79059 343.5625 588.59375 C 345.34251 589.11229 346.89021 590.37415 347.78125 592 C 348.67228 593.62585 348.89564 595.5956 348.375 597.375 C 332.18494 652.19578 288.78601 695.40746 233.8125 711.21875 C 230.3258 712.22048 226.24069 710.04567 225.125 706.59375 C 216 680.3622 210 632.37501 214.5 602.375 C 219 584.37501 226.51278 580.74875 244.5 576.875 C 249.35863 576.56439 254.38637 576.53349 258.71875 576.59375 z M 132.59375 578 C 150.39908 580.22111 156.47287 584.08065 162.75 604.71875 C 165.78441 640.33702 159.72794 674.18315 149.84375 706.4375 C 148.77935 709.94784 144.65163 712.19663 141.125 711.1875 C 86.282067 695.38806 42.938052 652.35152 26.6875 597.6875 C 26.131859 595.83031 26.393151 593.73398 27.375 592.0625 C 28.356848 590.39102 30.044799 589.169 31.9375 588.75 C 66.551578 581.11116 100.35674 579.13961 132.59375 578 z "
           style="fill:#ffffff;fill-opacity:1;fill-rule:evenodd;stroke:#000000;stroke-width:3;stroke-miterlimit:4;stroke-opacity:1;stroke-dasharray:none;filter:url(#filter3727)"
           id="path3737"
           d="m 187.3125,367.03125 c -4.15444,-0.0167 -8.39305,0.17562 -12.65625,0.46875 0.22666,1.80593 0.323,3.61422 0.25,5.40625 2.64924,3.55134 4.75875,7.68147 6.03125,12.46875 a 27.085331,27.085331 0 0 1 0,0.0937 c 4.26991,16.25201 6.95765,32.44496 8.5,48.5 2.06718,-16.34909 5.34957,-32.2445 9.59375,-47.59375 1.26578,-4.56987 3.30082,-8.53959 5.84375,-11.96875 -0.0961,-2.11044 -0.0342,-4.22139 0.28125,-6.34375 -4.854,-0.50233 -9.72709,-0.89521 -14.59375,-1 -1.33361,-0.0287 -2.42072,-0.0279 -3.25,-0.0312 z m 1.90625,138.125 c -2.35962,16.16931 -11.70103,30.56319 -22.53125,37.625 -10.2793,6.70258 -19.80275,8.353 -26.09375,9.0625 9.33868,1.44655 19.63206,4.10518 28.875,11.90625 10.43342,8.80584 15.12556,20.14084 18.78125,31.90625 3.0193,-11.98037 9.11431,-24.58214 19.59375,-32.71875 9.13202,-7.09043 18.22436,-9.65949 26.96875,-11.625 -12.91325,-2.02688 -25.17936,-7.50105 -33.125,-16.75 -8.8163,-10.26243 -11.21075,-21.15342 -12.46875,-29.40625 z m 181.5625,27.46875 c -2.53513,0.46982 -5.05412,0.67712 -7.5625,0.5625 -3.47149,2.71305 -7.4543,4.69951 -11.875,5.9375 -0.0132,0.004 -0.0181,0.0276 -0.0312,0.0312 l 0,-0.0312 c -19.72133,5.54079 -40.14213,9.5516 -61.21875,11.6875 21.59227,1.91265 41.9276,6.25473 61,11.78125 a 27.085331,27.085331 0 0 1 0.0312,0 c 4.39102,1.27916 8.27987,3.2991 11.625,5.9375 2.64222,-0.10712 5.30803,0.17842 7.96875,0.71875 1.38193,-12.10289 1.41532,-24.23652 0.0625,-36.625 z m -366.21875,1 C 3.460838,545.49608 3.6876963,556.80689 5.03125,568 c 3.0203207,-0.50761 6.044774,-0.75187 9.03125,-0.4375 3.566685,-2.45773 7.591339,-4.26711 12.03125,-5.25 27.041517,-5.96768 53.144904,-8.62851 77.9375,-10.09375 -26.955918,-1.14575 -53.806992,-5.09715 -80.28125,-12.25 -4.516009,-1.21813 -8.521602,-3.21983 -12,-5.90625 -2.3821471,0.12119 -4.7837002,-0.0298 -7.1875,-0.4375 z m 183.15625,128.46875 c -2.63086,18.12483 -6.84871,35.5734 -11.96875,52.28125 l -0.0312,0 c -1.40718,4.60156 -3.48584,8.6385 -6.09375,12.03125 0.0241,2.09253 -0.12136,4.18358 -0.5,6.28125 12.26593,1.76628 24.41765,2.17247 37.21875,0.8125 -0.47087,-2.24119 -0.71187,-4.47511 -0.71875,-6.71875 -2.53394,-3.20206 -4.59967,-6.99193 -6.0625,-11.3125 l -0.0312,0.0312 c -0.0478,-0.13749 -0.0774,-0.29949 -0.125,-0.4375 -0.015,-0.0458 -0.0477,-0.0791 -0.0625,-0.125 -5.25689,-15.26293 -9.30894,-33.69798 -11.625,-52.84375 z" />
        <path
           d="m 187.28125,372.71875 c -1.81945,-0.007 -3.68989,0.10273 -5.53125,0.15625 1.95627,3.32775 3.60051,6.94188 4.6875,11.03125 a 32.79642,32.79642 0 0 1 0.0312,0.0937 c 1.29496,4.92883 2.47198,9.86533 3.5,14.78125 1.10117,-4.68856 2.29295,-9.34612 3.5625,-13.9375 1.19345,-4.30874 2.95653,-8.17821 5.125,-11.625 -2.73891,-0.19154 -5.47756,-0.37847 -8.21875,-0.4375 -1.34222,-0.0289 -2.40575,-0.0595 -3.15625,-0.0625 z M 188.9375,524.625 c -4.76732,9.76483 -11.59447,18.02724 -19.125,22.9375 -2.84948,1.85799 -5.64421,3.30286 -8.34375,4.53125 3.95043,1.86972 7.89928,4.11523 11.6875,7.3125 7.09101,5.98484 11.61212,12.94403 15.03125,20.1875 3.76793,-7.93372 8.91225,-15.53175 16.15625,-21.15625 3.83377,-2.97668 7.58882,-5.05543 11.3125,-6.8125 -7.02941,-3.24055 -13.39349,-7.65426 -18.28125,-13.34375 -3.90998,-4.55133 -6.42976,-9.15878 -8.4375,-13.65625 z m 176.78125,14.1875 c -0.25018,0.007 -0.50015,0.0293 -0.75,0.0312 -3.63164,2.52571 -7.61523,4.53334 -12.0625,5.78125 -0.0217,0.006 -0.0408,0.0252 -0.0625,0.0312 -8.35327,2.34603 -16.86143,4.36806 -25.46875,6.15625 8.65377,1.85623 17.14383,3.91425 25.3125,6.28125 a 32.79642,32.79642 0 0 1 0.0312,0 c 4.40282,1.2826 8.28044,3.3262 11.78125,5.78125 0.40585,0.005 0.8123,0.0447 1.21875,0.0625 0.6257,-7.98229 0.6119,-16.00709 0,-24.125 z M 9.75,539.71875 c -0.4346677,7.54047 -0.3158621,14.87114 0.3125,22.125 0.842283,-0.0129 1.692184,-0.0425 2.53125,0 3.730098,-2.28489 7.764693,-4.13206 12.25,-5.125 a 32.79642,32.79642 0 0 1 0.03125,0 c 8.705476,-1.92118 17.291001,-3.466 25.78125,-4.78125 -9.490297,-1.77335 -18.966604,-3.92761 -28.375,-6.46875 -0.0097,-0.003 -0.02159,0.003 -0.03125,0 -4.551563,-1.23101 -8.601,-3.24087 -12.25,-5.75 -0.083202,-2.9e-4 -0.1667671,8.4e-4 -0.25,0 z m 177.59375,153.75 c -1.86238,7.64429 -3.87568,15.15593 -6.125,22.5 -0.007,0.0218 -0.0246,0.0407 -0.0312,0.0625 -1.36064,4.46459 -3.35751,8.31412 -5.6875,11.8125 8.04255,0.88449 16.06079,1.05743 24.3125,0.53125 -2.25151,-3.2626 -4.2181,-6.86219 -5.625,-11 l -0.0312,0 c -0.0419,-0.12037 -0.0833,-0.2543 -0.125,-0.375 -0.0365,-0.1102 -0.0892,-0.20172 -0.125,-0.3125 l 0.0312,0 c -2.4784,-7.20454 -4.67911,-15.04332 -6.59375,-23.21875 z"
           id="path3739"
           style="fill:#ffffff;fill-opacity:1;fill-rule:evenodd;stroke:#000000;stroke-width:3;stroke-miterlimit:4;stroke-opacity:1;stroke-dasharray:none;filter:url(#filter3727)"
           inkscape:original="M 187.40625 339.9375 C 171.26386 339.8728 154.65547 341.79785 137.375 345.8125 C 141.1223 353.50913 144.54321 361.25071 147.40625 369.03125 C 148.08277 370.87513 147.93996 373.00879 147.03125 374.75 C 146.12253 376.49122 144.462 377.813 142.5625 378.3125 C 81.744715 394.15071 33.690825 441.45551 16.78125 501.84375 C 16.263809 503.70282 14.960566 505.32552 13.25 506.21875 C 11.539434 507.11198 9.4462833 507.26283 7.625 506.625 C -0.43977405 503.81187 -8.4292154 500.56169 -16.40625 497.09375 C -26.657396 536.30839 -24.4295 569.98146 -15.6875 603.28125 C -7.6252388 600.11269 0.41989095 597.20994 8.4375 594.8125 C 10.22088 594.28247 12.210888 594.48329 13.84375 595.375 C 15.476612 596.2667 16.73188 597.83812 17.25 599.625 C 34.079741 657.54506 79.671041 703.16031 137.53125 720.09375 C 139.37538 720.63736 140.97462 721.97258 141.84375 723.6875 C 142.71287 725.40242 142.8395 727.4726 142.1875 729.28125 C 139.31814 737.17854 136.16017 744.92319 133.03125 752.65625 C 168.14304 762.27577 202.25623 765.61612 242.875 753.75 C 239.6119 745.70421 236.29957 737.63661 233.125 729.28125 C 232.44177 727.46597 232.54117 725.361 233.40625 723.625 C 234.27132 721.88901 235.88931 720.5476 237.75 720 C 295.13645 703.10463 340.36453 657.96562 357.40625 600.625 C 357.95147 598.79542 359.26826 597.21147 360.96875 596.34375 C 362.66925 595.47603 364.72987 595.33658 366.53125 595.96875 C 374.92809 598.91051 383.04306 602.12543 391.15625 605.3125 C 401.2824 569.49528 401.58135 533.81727 391.40625 496.25 C 383.40326 499.63832 375.33593 502.89413 367.125 505.78125 C 365.3078 506.42009 363.24109 506.26201 361.53125 505.375 C 359.82141 504.48798 358.49299 502.88476 357.96875 501.03125 C 341.29487 442.56714 295.38516 396.49794 237.03125 379.59375 C 235.19776 379.06112 233.59814 377.75721 232.71875 376.0625 C 231.83937 374.36779 231.69242 372.30578 232.3125 370.5 C 235.06092 362.56052 238.11638 354.74398 241.28125 347 C 224.78303 342.90666 208.17445 340.36645 191.15625 340 C 189.86349 339.9722 188.60918 339.9423 187.40625 339.9375 z M 147.5625 387.09375 C 150.76723 386.93572 153.92574 389.24281 154.75 392.34375 C 164.07073 427.82004 165.50086 463.61998 162.75 498.375 C 161.8763 521.34408 144 524.36218 134.78125 525.25 C 99.749722 526.64702 64.939708 523.03303 30.8125 513.8125 C 29.011324 513.32666 27.421201 512.09099 26.5 510.46875 C 25.578799 508.84651 25.338182 506.85824 25.84375 505.0625 C 41.857978 447.34371 87.9615 402.11736 146.15625 387.3125 C 146.61607 387.19261 147.08799 387.1192 147.5625 387.09375 z M 231.9375 388.40625 C 232.60114 388.39625 233.26606 388.48115 233.90625 388.65625 C 289.46096 404.66617 333.20518 448.63373 348.9375 504.3125 C 349.44528 506.10006 349.22135 508.09789 348.3125 509.71875 C 347.40366 511.33962 345.82123 512.56333 344.03125 513.0625 C 312.15021 522.0223 278.70664 526.69485 243.5625 525.25 C 221.95914 524.26339 217.58863 512.60883 215.71875 499.40625 C 211.46816 462.29098 215.87504 427.04663 225.125 393.59375 C 225.94327 390.63953 228.87205 388.40936 231.9375 388.40625 z M 258.71875 576.59375 C 263.05113 576.65401 266.68815 576.79265 268.8125 576.8125 C 295.27711 577.06007 320.08434 581.79059 343.5625 588.59375 C 345.34251 589.11229 346.89021 590.37415 347.78125 592 C 348.67228 593.62585 348.89564 595.5956 348.375 597.375 C 332.18494 652.19578 288.78601 695.40746 233.8125 711.21875 C 230.3258 712.22048 226.24069 710.04567 225.125 706.59375 C 216 680.3622 210 632.37501 214.5 602.375 C 219 584.37501 226.51278 580.74875 244.5 576.875 C 249.35863 576.56439 254.38637 576.53349 258.71875 576.59375 z M 132.59375 578 C 150.39908 580.22111 156.47287 584.08065 162.75 604.71875 C 165.78441 640.33702 159.72794 674.18315 149.84375 706.4375 C 148.77935 709.94784 144.65163 712.19663 141.125 711.1875 C 86.282067 695.38806 42.938052 652.35152 26.6875 597.6875 C 26.131859 595.83031 26.393151 593.73398 27.375 592.0625 C 28.356848 590.39102 30.044799 589.169 31.9375 588.75 C 66.551578 581.11116 100.35674 579.13961 132.59375 578 z "
           inkscape:radius="-32.79314"
           sodipodi:type="inkscape:offset" />
      </g>
      <path
         sodipodi:nodetypes="ccccc"
         id="path3799"
         d="m 112.63201,190.38824 37.62818,6.06092 c 10.37503,-17.78169 26.97821,-35.9452 48.23478,-50.76017 l -5.05076,-34.09264 c -27.24845,16.93245 -54.83706,23.6602 -80.8122,78.79189"
         style="fill:none;stroke:#000000;stroke-width:1px;stroke-linecap:butt;stroke-linejoin:miter;stroke-opacity:1"
         transform="translate(-52.840199,290.93929)" />
      <path
         sodipodi:nodetypes="ccccc"
         id="path3838"
         d="m 156.37627,472.19516 29.24238,20.71428 c 90.34183,33.70454 148.21707,16.34545 187.95278,-0.0523 l -29.10714,-20.71428 c -48.90628,21.11692 -106.88562,27.96503 -187.58294,0.68365"
         style="fill:url(#linearGradient4024);fill-opacity:1;stroke:#000000;stroke-width:1px;stroke-linecap:butt;stroke-linejoin:miter;stroke-opacity:1"
         transform="translate(-52.840199,290.93929)" />
      <path
         sodipodi:nodetypes="ccccc"
         id="path3851"
         d="m 327.92077,430.67828 29.16816,20.32932 16.16243,40.53237 -28.78934,-19.95051 -16.54125,-40.91118"
         style="fill:url(#linearGradient4026);fill-opacity:1;stroke:#000000;stroke-width:1px;stroke-linecap:butt;stroke-linejoin:miter;stroke-opacity:1"
         transform="translate(-52.840199,290.93929)" />
      <path
         id="path3877"
         d="m 430.53572,329.28571 28.39285,20 41.60715,15.89286 -28.75,-20.17857 -41.25,-15.71429"
         style="fill:url(#linearGradient4028);fill-opacity:1;stroke:#000000;stroke-width:1px;stroke-linecap:butt;stroke-linejoin:miter;stroke-opacity:1"
         transform="translate(-52.840199,290.93929)" />
      <path
         sodipodi:nodetypes="ccccc"
         id="path3916"
         d="m 501.03566,177.76134 -28.28427,-19.82425 c 28.26479,81.76479 16.23917,137.1739 -0.50507,186.49942 l 28.78934,20.70813 c 13.38423,-34.15666 33.71757,-98.47343 0,-187.3833"
         style="fill:url(#linearGradient4030);fill-opacity:1;stroke:#000000;stroke-width:1px;stroke-linecap:butt;stroke-linejoin:miter;stroke-opacity:1"
         transform="translate(-52.840199,290.93929)" />
    </g>
  </g>
</svg>
